<svg width="99" height="88" viewBox="0 0 99 88" fill="none" xmlns="http://www.w3.org/2000/svg">
<g opacity="0.3">
<mask id="mask0_1_11" style="mask-type:alpha" maskUnits="userSpaceOnUse" x="0" y="0" width="8" height="8">
<path d="M3.91048 7.97735C6.06971 7.97735 7.82011 6.19152 7.82011 3.98865C7.82011 1.78577 6.06971 0 3.91048 0C1.75125 0 0.000854492 1.78577 0.000854492 3.98865C0.000854492 6.19152 1.75125 7.97735 3.91048 7.97735Z" fill="url(#paint0_linear_1_11)"/>
</mask>
<g mask="url(#mask0_1_11)">
<path d="M3.91048 7.97735C6.06971 7.97735 7.82011 6.19152 7.82011 3.98865C7.82011 1.78577 6.06971 0 3.91048 0C1.75125 0 0.000854492 1.78577 0.000854492 3.98865C0.000854492 6.19152 1.75125 7.97735 3.91048 7.97735Z" fill="url(#paint1_linear_1_11)"/>
</g>
<mask id="mask1_1_11" style="mask-type:alpha" maskUnits="userSpaceOnUse" x="22" y="0" width="9" height="8">
<path d="M26.5533 7.97735C28.7126 7.97735 30.463 6.19152 30.463 3.98865C30.463 1.78577 28.7126 0 26.5533 0C24.3941 0 22.6437 1.78577 22.6437 3.98865C22.6437 6.19152 24.3941 7.97735 26.5533 7.97735Z" fill="url(#paint2_linear_1_11)"/>
</mask>
<g mask="url(#mask1_1_11)">
<path d="M26.5537 7.97735C28.7129 7.97735 30.4633 6.19152 30.4633 3.98865C30.4633 1.78577 28.7129 0 26.5537 0C24.3945 0 22.6441 1.78577 22.6441 3.98865C22.6441 6.19152 24.3945 7.97735 26.5537 7.97735Z" fill="url(#paint3_linear_1_11)"/>
</g>
<mask id="mask2_1_11" style="mask-type:alpha" maskUnits="userSpaceOnUse" x="45" y="0" width="9" height="8">
<path d="M49.1962 7.97735C51.3554 7.97735 53.1058 6.19152 53.1058 3.98865C53.1058 1.78577 51.3554 0 49.1962 0C47.037 0 45.2866 1.78577 45.2866 3.98865C45.2866 6.19152 47.037 7.97735 49.1962 7.97735Z" fill="url(#paint4_linear_1_11)"/>
</mask>
<g mask="url(#mask2_1_11)">
<path d="M49.1969 7.97735C51.3561 7.97735 53.1065 6.19152 53.1065 3.98865C53.1065 1.78577 51.3561 0 49.1969 0C47.0377 0 45.2873 1.78577 45.2873 3.98865C45.2873 6.19152 47.0377 7.97735 49.1969 7.97735Z" fill="url(#paint5_linear_1_11)"/>
</g>
<mask id="mask3_1_11" style="mask-type:alpha" maskUnits="userSpaceOnUse" x="67" y="0" width="9" height="8">
<path d="M71.839 7.97735C73.9982 7.97735 75.7486 6.19152 75.7486 3.98865C75.7486 1.78577 73.9982 0 71.839 0C69.6798 0 67.9294 1.78577 67.9294 3.98865C67.9294 6.19152 69.6798 7.97735 71.839 7.97735Z" fill="url(#paint6_linear_1_11)"/>
</mask>
<g mask="url(#mask3_1_11)">
<path d="M71.8396 7.97735C73.9988 7.97735 75.7492 6.19152 75.7492 3.98865C75.7492 1.78577 73.9988 0 71.8396 0C69.6804 0 67.9299 1.78577 67.9299 3.98865C67.9299 6.19152 69.6804 7.97735 71.8396 7.97735Z" fill="url(#paint7_linear_1_11)"/>
</g>
<mask id="mask4_1_11" style="mask-type:alpha" maskUnits="userSpaceOnUse" x="90" y="0" width="9" height="8">
<path d="M94.4849 7.97735C96.6441 7.97735 98.3945 6.19152 98.3945 3.98865C98.3945 1.78577 96.6441 0 94.4849 0C92.3256 0 90.5752 1.78577 90.5752 3.98865C90.5752 6.19152 92.3256 7.97735 94.4849 7.97735Z" fill="url(#paint8_linear_1_11)"/>
</mask>
<g mask="url(#mask4_1_11)">
<path d="M94.4843 7.97735C96.6435 7.97735 98.3939 6.19152 98.3939 3.98865C98.3939 1.78577 96.6435 0 94.4843 0C92.3251 0 90.5747 1.78577 90.5747 3.98865C90.5747 6.19152 92.3251 7.97735 94.4843 7.97735Z" fill="url(#paint9_linear_1_11)"/>
</g>
<mask id="mask5_1_11" style="mask-type:alpha" maskUnits="userSpaceOnUse" x="0" y="20" width="8" height="9">
<path d="M3.91048 28.0037C6.06971 28.0037 7.82011 26.2179 7.82011 24.015C7.82011 21.8122 6.06971 20.0264 3.91048 20.0264C1.75125 20.0264 0.000854492 21.8122 0.000854492 24.015C0.000854492 26.2179 1.75125 28.0037 3.91048 28.0037Z" fill="url(#paint10_linear_1_11)"/>
</mask>
<g mask="url(#mask5_1_11)">
<path d="M3.91048 28.0037C6.06971 28.0037 7.82011 26.218 7.82011 24.0151C7.82011 21.8122 6.06971 20.0265 3.91048 20.0265C1.75125 20.0265 0.000854492 21.8122 0.000854492 24.0151C0.000854492 26.218 1.75125 28.0037 3.91048 28.0037Z" fill="url(#paint11_linear_1_11)"/>
</g>
<mask id="mask6_1_11" style="mask-type:alpha" maskUnits="userSpaceOnUse" x="22" y="20" width="9" height="9">
<path d="M26.5533 28.0038C28.7126 28.0038 30.463 26.218 30.463 24.0151C30.463 21.8123 28.7126 20.0265 26.5533 20.0265C24.3941 20.0265 22.6437 21.8123 22.6437 24.0151C22.6437 26.218 24.3941 28.0038 26.5533 28.0038Z" fill="url(#paint12_linear_1_11)"/>
</mask>
<g mask="url(#mask6_1_11)">
<path d="M26.5537 28.0037C28.7129 28.0037 30.4633 26.2179 30.4633 24.0151C30.4633 21.8122 28.7129 20.0264 26.5537 20.0264C24.3945 20.0264 22.6441 21.8122 22.6441 24.0151C22.6441 26.2179 24.3945 28.0037 26.5537 28.0037Z" fill="url(#paint13_linear_1_11)"/>
</g>
<mask id="mask7_1_11" style="mask-type:alpha" maskUnits="userSpaceOnUse" x="45" y="20" width="9" height="9">
<path d="M49.1962 28.0038C51.3554 28.0038 53.1058 26.218 53.1058 24.0151C53.1058 21.8123 51.3554 20.0265 49.1962 20.0265C47.037 20.0265 45.2866 21.8123 45.2866 24.0151C45.2866 26.218 47.037 28.0038 49.1962 28.0038Z" fill="url(#paint14_linear_1_11)"/>
</mask>
<g mask="url(#mask7_1_11)">
<path d="M49.1969 28.0037C51.3561 28.0037 53.1065 26.2179 53.1065 24.0151C53.1065 21.8122 51.3561 20.0264 49.1969 20.0264C47.0377 20.0264 45.2873 21.8122 45.2873 24.0151C45.2873 26.2179 47.0377 28.0037 49.1969 28.0037Z" fill="url(#paint15_linear_1_11)"/>
</g>
<mask id="mask8_1_11" style="mask-type:alpha" maskUnits="userSpaceOnUse" x="67" y="20" width="9" height="9">
<path d="M71.839 28.0038C73.9982 28.0038 75.7486 26.218 75.7486 24.0151C75.7486 21.8123 73.9982 20.0265 71.839 20.0265C69.6798 20.0265 67.9294 21.8123 67.9294 24.0151C67.9294 26.218 69.6798 28.0038 71.839 28.0038Z" fill="url(#paint16_linear_1_11)"/>
</mask>
<g mask="url(#mask8_1_11)">
<path d="M71.8396 28.0037C73.9988 28.0037 75.7492 26.2179 75.7492 24.0151C75.7492 21.8122 73.9988 20.0264 71.8396 20.0264C69.6804 20.0264 67.9299 21.8122 67.9299 24.0151C67.9299 26.2179 69.6804 28.0037 71.8396 28.0037Z" fill="url(#paint17_linear_1_11)"/>
</g>
<mask id="mask9_1_11" style="mask-type:alpha" maskUnits="userSpaceOnUse" x="90" y="20" width="9" height="9">
<path d="M94.4849 28.0038C96.6441 28.0038 98.3945 26.218 98.3945 24.0151C98.3945 21.8123 96.6441 20.0265 94.4849 20.0265C92.3256 20.0265 90.5752 21.8123 90.5752 24.0151C90.5752 26.218 92.3256 28.0038 94.4849 28.0038Z" fill="url(#paint18_linear_1_11)"/>
</mask>
<g mask="url(#mask9_1_11)">
<path d="M94.4843 28.0037C96.6435 28.0037 98.3939 26.2179 98.3939 24.0151C98.3939 21.8122 96.6435 20.0264 94.4843 20.0264C92.3251 20.0264 90.5747 21.8122 90.5747 24.0151C90.5747 26.2179 92.3251 28.0037 94.4843 28.0037Z" fill="url(#paint19_linear_1_11)"/>
</g>
<mask id="mask10_1_11" style="mask-type:alpha" maskUnits="userSpaceOnUse" x="0" y="40" width="8" height="8">
<path d="M3.91048 47.9887C6.06971 47.9887 7.82011 46.2029 7.82011 44C7.82011 41.7971 6.06971 40.0113 3.91048 40.0113C1.75125 40.0113 0.000854492 41.7971 0.000854492 44C0.000854492 46.2029 1.75125 47.9887 3.91048 47.9887Z" fill="url(#paint20_linear_1_11)"/>
</mask>
<g mask="url(#mask10_1_11)">
<path d="M3.91048 47.9888C6.06971 47.9888 7.82011 46.203 7.82011 44.0001C7.82011 41.7972 6.06971 40.0114 3.91048 40.0114C1.75125 40.0114 0.000854492 41.7972 0.000854492 44.0001C0.000854492 46.203 1.75125 47.9888 3.91048 47.9888Z" fill="url(#paint21_linear_1_11)"/>
</g>
<mask id="mask11_1_11" style="mask-type:alpha" maskUnits="userSpaceOnUse" x="22" y="40" width="9" height="8">
<path d="M26.5533 47.989C28.7126 47.989 30.463 46.2032 30.463 44.0003C30.463 41.7974 28.7126 40.0116 26.5533 40.0116C24.3941 40.0116 22.6437 41.7974 22.6437 44.0003C22.6437 46.2032 24.3941 47.989 26.5533 47.989Z" fill="url(#paint22_linear_1_11)"/>
</mask>
<g mask="url(#mask11_1_11)">
<path d="M26.5537 47.9888C28.7129 47.9888 30.4633 46.203 30.4633 44.0001C30.4633 41.7972 28.7129 40.0114 26.5537 40.0114C24.3945 40.0114 22.6441 41.7972 22.6441 44.0001C22.6441 46.203 24.3945 47.9888 26.5537 47.9888Z" fill="url(#paint23_linear_1_11)"/>
</g>
<mask id="mask12_1_11" style="mask-type:alpha" maskUnits="userSpaceOnUse" x="45" y="40" width="9" height="8">
<path d="M49.1962 47.989C51.3554 47.989 53.1058 46.2032 53.1058 44.0003C53.1058 41.7974 51.3554 40.0116 49.1962 40.0116C47.037 40.0116 45.2866 41.7974 45.2866 44.0003C45.2866 46.2032 47.037 47.989 49.1962 47.989Z" fill="url(#paint24_linear_1_11)"/>
</mask>
<g mask="url(#mask12_1_11)">
<path d="M49.1969 47.9888C51.3561 47.9888 53.1065 46.203 53.1065 44.0001C53.1065 41.7972 51.3561 40.0114 49.1969 40.0114C47.0377 40.0114 45.2873 41.7972 45.2873 44.0001C45.2873 46.203 47.0377 47.9888 49.1969 47.9888Z" fill="url(#paint25_linear_1_11)"/>
</g>
<mask id="mask13_1_11" style="mask-type:alpha" maskUnits="userSpaceOnUse" x="67" y="40" width="9" height="8">
<path d="M71.839 47.989C73.9982 47.989 75.7486 46.2032 75.7486 44.0003C75.7486 41.7974 73.9982 40.0116 71.839 40.0116C69.6798 40.0116 67.9294 41.7974 67.9294 44.0003C67.9294 46.2032 69.6798 47.989 71.839 47.989Z" fill="url(#paint26_linear_1_11)"/>
</mask>
<g mask="url(#mask13_1_11)">
<path d="M71.8396 47.9888C73.9988 47.9888 75.7492 46.203 75.7492 44.0001C75.7492 41.7972 73.9988 40.0114 71.8396 40.0114C69.6804 40.0114 67.9299 41.7972 67.9299 44.0001C67.9299 46.203 69.6804 47.9888 71.8396 47.9888Z" fill="url(#paint27_linear_1_11)"/>
</g>
<mask id="mask14_1_11" style="mask-type:alpha" maskUnits="userSpaceOnUse" x="90" y="40" width="9" height="8">
<path d="M94.4849 47.989C96.6441 47.989 98.3945 46.2032 98.3945 44.0003C98.3945 41.7974 96.6441 40.0116 94.4849 40.0116C92.3256 40.0116 90.5752 41.7974 90.5752 44.0003C90.5752 46.2032 92.3256 47.989 94.4849 47.989Z" fill="url(#paint28_linear_1_11)"/>
</mask>
<g mask="url(#mask14_1_11)">
<path d="M94.4843 47.9888C96.6435 47.9888 98.3939 46.203 98.3939 44.0001C98.3939 41.7972 96.6435 40.0114 94.4843 40.0114C92.3251 40.0114 90.5747 41.7972 90.5747 44.0001C90.5747 46.203 92.3251 47.9888 94.4843 47.9888Z" fill="url(#paint29_linear_1_11)"/>
</g>
<mask id="mask15_1_11" style="mask-type:alpha" maskUnits="userSpaceOnUse" x="0" y="60" width="8" height="9">
<path d="M3.91048 68.0155C6.06971 68.0155 7.82011 66.2296 7.82011 64.0268C7.82011 61.8239 6.06971 60.0381 3.91048 60.0381C1.75125 60.0381 0.000854492 61.8239 0.000854492 64.0268C0.000854492 66.2296 1.75125 68.0155 3.91048 68.0155Z" fill="url(#paint30_linear_1_11)"/>
</mask>
<g mask="url(#mask15_1_11)">
<path d="M3.91048 68.0152C6.06971 68.0152 7.82011 66.2294 7.82011 64.0265C7.82011 61.8236 6.06971 60.0379 3.91048 60.0379C1.75125 60.0379 0.000854492 61.8236 0.000854492 64.0265C0.000854492 66.2294 1.75125 68.0152 3.91048 68.0152Z" fill="url(#paint31_linear_1_11)"/>
</g>
<mask id="mask16_1_11" style="mask-type:alpha" maskUnits="userSpaceOnUse" x="22" y="60" width="9" height="9">
<path d="M26.5533 68.0155C28.7126 68.0155 30.463 66.2296 30.463 64.0268C30.463 61.8239 28.7126 60.0381 26.5533 60.0381C24.3941 60.0381 22.6437 61.8239 22.6437 64.0268C22.6437 66.2296 24.3941 68.0155 26.5533 68.0155Z" fill="url(#paint32_linear_1_11)"/>
</mask>
<g mask="url(#mask16_1_11)">
<path d="M26.5537 68.0152C28.7129 68.0152 30.4633 66.2294 30.4633 64.0265C30.4633 61.8236 28.7129 60.0379 26.5537 60.0379C24.3945 60.0379 22.6441 61.8236 22.6441 64.0265C22.6441 66.2294 24.3945 68.0152 26.5537 68.0152Z" fill="url(#paint33_linear_1_11)"/>
</g>
<mask id="mask17_1_11" style="mask-type:alpha" maskUnits="userSpaceOnUse" x="45" y="60" width="9" height="9">
<path d="M49.1962 68.0155C51.3554 68.0155 53.1058 66.2296 53.1058 64.0268C53.1058 61.8239 51.3554 60.0381 49.1962 60.0381C47.037 60.0381 45.2866 61.8239 45.2866 64.0268C45.2866 66.2296 47.037 68.0155 49.1962 68.0155Z" fill="url(#paint34_linear_1_11)"/>
</mask>
<g mask="url(#mask17_1_11)">
<path d="M49.1969 68.0152C51.3561 68.0152 53.1065 66.2294 53.1065 64.0265C53.1065 61.8236 51.3561 60.0379 49.1969 60.0379C47.0377 60.0379 45.2873 61.8236 45.2873 64.0265C45.2873 66.2294 47.0377 68.0152 49.1969 68.0152Z" fill="url(#paint35_linear_1_11)"/>
</g>
<mask id="mask18_1_11" style="mask-type:alpha" maskUnits="userSpaceOnUse" x="67" y="60" width="9" height="9">
<path d="M71.839 68.0155C73.9982 68.0155 75.7486 66.2296 75.7486 64.0268C75.7486 61.8239 73.9982 60.0381 71.839 60.0381C69.6798 60.0381 67.9294 61.8239 67.9294 64.0268C67.9294 66.2296 69.6798 68.0155 71.839 68.0155Z" fill="url(#paint36_linear_1_11)"/>
</mask>
<g mask="url(#mask18_1_11)">
<path d="M71.8396 68.0152C73.9988 68.0152 75.7492 66.2294 75.7492 64.0265C75.7492 61.8236 73.9988 60.0379 71.8396 60.0379C69.6804 60.0379 67.9299 61.8236 67.9299 64.0265C67.9299 66.2294 69.6804 68.0152 71.8396 68.0152Z" fill="url(#paint37_linear_1_11)"/>
</g>
<mask id="mask19_1_11" style="mask-type:alpha" maskUnits="userSpaceOnUse" x="90" y="60" width="9" height="9">
<path d="M94.4849 68.0155C96.6441 68.0155 98.3945 66.2296 98.3945 64.0268C98.3945 61.8239 96.6441 60.0381 94.4849 60.0381C92.3256 60.0381 90.5752 61.8239 90.5752 64.0268C90.5752 66.2296 92.3256 68.0155 94.4849 68.0155Z" fill="url(#paint38_linear_1_11)"/>
</mask>
<g mask="url(#mask19_1_11)">
<path d="M94.4843 68.0152C96.6435 68.0152 98.3939 66.2294 98.3939 64.0265C98.3939 61.8236 96.6435 60.0379 94.4843 60.0379C92.3251 60.0379 90.5747 61.8236 90.5747 64.0265C90.5747 66.2294 92.3251 68.0152 94.4843 68.0152Z" fill="url(#paint39_linear_1_11)"/>
</g>
<mask id="mask20_1_11" style="mask-type:alpha" maskUnits="userSpaceOnUse" x="0" y="80" width="8" height="9">
<path d="M3.91048 88.0006C6.06971 88.0006 7.82011 86.2148 7.82011 84.0119C7.82011 81.809 6.06971 80.0232 3.91048 80.0232C1.75125 80.0232 0.000854492 81.809 0.000854492 84.0119C0.000854492 86.2148 1.75125 88.0006 3.91048 88.0006Z" fill="url(#paint40_linear_1_11)"/>
</mask>
<g mask="url(#mask20_1_11)">
<path d="M3.91048 88.0002C6.06971 88.0002 7.82011 86.2144 7.82011 84.0115C7.82011 81.8087 6.06971 80.0228 3.91048 80.0228C1.75125 80.0228 0.000854492 81.8087 0.000854492 84.0115C0.000854492 86.2144 1.75125 88.0002 3.91048 88.0002Z" fill="url(#paint41_linear_1_11)"/>
</g>
<mask id="mask21_1_11" style="mask-type:alpha" maskUnits="userSpaceOnUse" x="22" y="80" width="9" height="9">
<path d="M26.5533 88.0006C28.7126 88.0006 30.463 86.2148 30.463 84.0119C30.463 81.809 28.7126 80.0232 26.5533 80.0232C24.3941 80.0232 22.6437 81.809 22.6437 84.0119C22.6437 86.2148 24.3941 88.0006 26.5533 88.0006Z" fill="url(#paint42_linear_1_11)"/>
</mask>
<g mask="url(#mask21_1_11)">
<path d="M26.5537 88.0002C28.7129 88.0002 30.4633 86.2144 30.4633 84.0115C30.4633 81.8087 28.7129 80.0228 26.5537 80.0228C24.3945 80.0228 22.6441 81.8087 22.6441 84.0115C22.6441 86.2144 24.3945 88.0002 26.5537 88.0002Z" fill="url(#paint43_linear_1_11)"/>
</g>
<mask id="mask22_1_11" style="mask-type:alpha" maskUnits="userSpaceOnUse" x="45" y="80" width="9" height="9">
<path d="M49.1962 88.0006C51.3554 88.0006 53.1058 86.2148 53.1058 84.0119C53.1058 81.809 51.3554 80.0232 49.1962 80.0232C47.037 80.0232 45.2866 81.809 45.2866 84.0119C45.2866 86.2148 47.037 88.0006 49.1962 88.0006Z" fill="url(#paint44_linear_1_11)"/>
</mask>
<g mask="url(#mask22_1_11)">
<path d="M49.1969 88.0002C51.3561 88.0002 53.1065 86.2144 53.1065 84.0115C53.1065 81.8087 51.3561 80.0228 49.1969 80.0228C47.0377 80.0228 45.2873 81.8087 45.2873 84.0115C45.2873 86.2144 47.0377 88.0002 49.1969 88.0002Z" fill="url(#paint45_linear_1_11)"/>
</g>
<mask id="mask23_1_11" style="mask-type:alpha" maskUnits="userSpaceOnUse" x="67" y="80" width="9" height="9">
<path d="M71.839 88.0006C73.9982 88.0006 75.7486 86.2148 75.7486 84.0119C75.7486 81.809 73.9982 80.0232 71.839 80.0232C69.6798 80.0232 67.9294 81.809 67.9294 84.0119C67.9294 86.2148 69.6798 88.0006 71.839 88.0006Z" fill="url(#paint46_linear_1_11)"/>
</mask>
<g mask="url(#mask23_1_11)">
<path d="M71.8396 88.0002C73.9988 88.0002 75.7492 86.2144 75.7492 84.0115C75.7492 81.8087 73.9988 80.0228 71.8396 80.0228C69.6804 80.0228 67.9299 81.8087 67.9299 84.0115C67.9299 86.2144 69.6804 88.0002 71.8396 88.0002Z" fill="url(#paint47_linear_1_11)"/>
</g>
<mask id="mask24_1_11" style="mask-type:alpha" maskUnits="userSpaceOnUse" x="90" y="80" width="9" height="9">
<path d="M94.4849 88.0006C96.6441 88.0006 98.3945 86.2148 98.3945 84.0119C98.3945 81.809 96.6441 80.0232 94.4849 80.0232C92.3256 80.0232 90.5752 81.809 90.5752 84.0119C90.5752 86.2148 92.3256 88.0006 94.4849 88.0006Z" fill="url(#paint48_linear_1_11)"/>
</mask>
<g mask="url(#mask24_1_11)">
<path d="M94.4843 88.0002C96.6435 88.0002 98.3939 86.2144 98.3939 84.0115C98.3939 81.8087 96.6435 80.0228 94.4843 80.0228C92.3251 80.0228 90.5747 81.8087 90.5747 84.0115C90.5747 86.2144 92.3251 88.0002 94.4843 88.0002Z" fill="url(#paint49_linear_1_11)"/>
</g>
</g>
<defs>
<linearGradient id="paint0_linear_1_11" x1="38.0768" y1="92.4707" x2="-17.4852" y2="-45.7764" gradientUnits="userSpaceOnUse">
<stop stop-color="#FFA434"/>
<stop offset="1" stop-color="#FFA434"/>
</linearGradient>
<linearGradient id="paint1_linear_1_11" x1="38.0768" y1="92.4707" x2="-17.4852" y2="-45.7764" gradientUnits="userSpaceOnUse">
<stop stop-color="#FFA434"/>
<stop offset="1" stop-color="#FFA434"/>
</linearGradient>
<linearGradient id="paint2_linear_1_11" x1="60.7197" y1="92.4707" x2="5.15776" y2="-45.7764" gradientUnits="userSpaceOnUse">
<stop stop-color="#FFA434"/>
<stop offset="1" stop-color="#FFA434"/>
</linearGradient>
<linearGradient id="paint3_linear_1_11" x1="60.7201" y1="92.4707" x2="5.15811" y2="-45.7764" gradientUnits="userSpaceOnUse">
<stop stop-color="#FFA434"/>
<stop offset="1" stop-color="#FFA434"/>
</linearGradient>
<linearGradient id="paint4_linear_1_11" x1="83.3626" y1="92.4707" x2="27.8006" y2="-45.7764" gradientUnits="userSpaceOnUse">
<stop stop-color="#FFA434"/>
<stop offset="1" stop-color="#FFA434"/>
</linearGradient>
<linearGradient id="paint5_linear_1_11" x1="83.3633" y1="92.4707" x2="27.8013" y2="-45.7764" gradientUnits="userSpaceOnUse">
<stop stop-color="#FFA434"/>
<stop offset="1" stop-color="#FFA434"/>
</linearGradient>
<linearGradient id="paint6_linear_1_11" x1="106.005" y1="92.4707" x2="50.4434" y2="-45.7764" gradientUnits="userSpaceOnUse">
<stop stop-color="#FFA434"/>
<stop offset="1" stop-color="#FFA434"/>
</linearGradient>
<linearGradient id="paint7_linear_1_11" x1="106.006" y1="92.4707" x2="50.444" y2="-45.7764" gradientUnits="userSpaceOnUse">
<stop stop-color="#FFA434"/>
<stop offset="1" stop-color="#FFA434"/>
</linearGradient>
<linearGradient id="paint8_linear_1_11" x1="128.651" y1="92.4707" x2="73.0893" y2="-45.7764" gradientUnits="userSpaceOnUse">
<stop stop-color="#FFA434"/>
<stop offset="1" stop-color="#FFA434"/>
</linearGradient>
<linearGradient id="paint9_linear_1_11" x1="128.651" y1="92.4707" x2="73.0887" y2="-45.7764" gradientUnits="userSpaceOnUse">
<stop stop-color="#FFA434"/>
<stop offset="1" stop-color="#FFA434"/>
</linearGradient>
<linearGradient id="paint10_linear_1_11" x1="38.0768" y1="112.496" x2="-17.4842" y2="-25.7499" gradientUnits="userSpaceOnUse">
<stop stop-color="#FFA434"/>
<stop offset="1" stop-color="#FFA434"/>
</linearGradient>
<linearGradient id="paint11_linear_1_11" x1="38.0768" y1="112.496" x2="-17.4842" y2="-25.7499" gradientUnits="userSpaceOnUse">
<stop stop-color="#FFA434"/>
<stop offset="1" stop-color="#FFA434"/>
</linearGradient>
<linearGradient id="paint12_linear_1_11" x1="60.7197" y1="112.496" x2="5.1587" y2="-25.7499" gradientUnits="userSpaceOnUse">
<stop stop-color="#FFA434"/>
<stop offset="1" stop-color="#FFA434"/>
</linearGradient>
<linearGradient id="paint13_linear_1_11" x1="60.7201" y1="112.496" x2="5.15905" y2="-25.7499" gradientUnits="userSpaceOnUse">
<stop stop-color="#FFA434"/>
<stop offset="1" stop-color="#FFA434"/>
</linearGradient>
<linearGradient id="paint14_linear_1_11" x1="83.3626" y1="112.496" x2="27.8016" y2="-25.7499" gradientUnits="userSpaceOnUse">
<stop stop-color="#FFA434"/>
<stop offset="1" stop-color="#FFA434"/>
</linearGradient>
<linearGradient id="paint15_linear_1_11" x1="83.3633" y1="112.496" x2="27.8023" y2="-25.7499" gradientUnits="userSpaceOnUse">
<stop stop-color="#FFA434"/>
<stop offset="1" stop-color="#FFA434"/>
</linearGradient>
<linearGradient id="paint16_linear_1_11" x1="106.005" y1="112.496" x2="50.4443" y2="-25.7499" gradientUnits="userSpaceOnUse">
<stop stop-color="#FFA434"/>
<stop offset="1" stop-color="#FFA434"/>
</linearGradient>
<linearGradient id="paint17_linear_1_11" x1="106.006" y1="112.496" x2="50.4449" y2="-25.7499" gradientUnits="userSpaceOnUse">
<stop stop-color="#FFA434"/>
<stop offset="1" stop-color="#FFA434"/>
</linearGradient>
<linearGradient id="paint18_linear_1_11" x1="128.651" y1="112.496" x2="73.0902" y2="-25.7499" gradientUnits="userSpaceOnUse">
<stop stop-color="#FFA434"/>
<stop offset="1" stop-color="#FFA434"/>
</linearGradient>
<linearGradient id="paint19_linear_1_11" x1="128.651" y1="112.496" x2="73.0897" y2="-25.7499" gradientUnits="userSpaceOnUse">
<stop stop-color="#FFA434"/>
<stop offset="1" stop-color="#FFA434"/>
</linearGradient>
<linearGradient id="paint20_linear_1_11" x1="38.0768" y1="132.482" x2="-17.4852" y2="-5.76507" gradientUnits="userSpaceOnUse">
<stop stop-color="#FFA434"/>
<stop offset="1" stop-color="#FFA434"/>
</linearGradient>
<linearGradient id="paint21_linear_1_11" x1="38.0768" y1="132.482" x2="-17.4852" y2="-5.76498" gradientUnits="userSpaceOnUse">
<stop stop-color="#FFA434"/>
<stop offset="1" stop-color="#FFA434"/>
</linearGradient>
<linearGradient id="paint22_linear_1_11" x1="60.7197" y1="132.482" x2="5.15776" y2="-5.76482" gradientUnits="userSpaceOnUse">
<stop stop-color="#FFA434"/>
<stop offset="1" stop-color="#FFA434"/>
</linearGradient>
<linearGradient id="paint23_linear_1_11" x1="60.7201" y1="132.482" x2="5.15811" y2="-5.76502" gradientUnits="userSpaceOnUse">
<stop stop-color="#FFA434"/>
<stop offset="1" stop-color="#FFA434"/>
</linearGradient>
<linearGradient id="paint24_linear_1_11" x1="83.3626" y1="132.482" x2="27.8006" y2="-5.76482" gradientUnits="userSpaceOnUse">
<stop stop-color="#FFA434"/>
<stop offset="1" stop-color="#FFA434"/>
</linearGradient>
<linearGradient id="paint25_linear_1_11" x1="83.3633" y1="132.482" x2="27.8013" y2="-5.76502" gradientUnits="userSpaceOnUse">
<stop stop-color="#FFA434"/>
<stop offset="1" stop-color="#FFA434"/>
</linearGradient>
<linearGradient id="paint26_linear_1_11" x1="106.005" y1="132.482" x2="50.4434" y2="-5.76482" gradientUnits="userSpaceOnUse">
<stop stop-color="#FFA434"/>
<stop offset="1" stop-color="#FFA434"/>
</linearGradient>
<linearGradient id="paint27_linear_1_11" x1="106.006" y1="132.482" x2="50.444" y2="-5.76502" gradientUnits="userSpaceOnUse">
<stop stop-color="#FFA434"/>
<stop offset="1" stop-color="#FFA434"/>
</linearGradient>
<linearGradient id="paint28_linear_1_11" x1="128.651" y1="132.482" x2="73.0893" y2="-5.76482" gradientUnits="userSpaceOnUse">
<stop stop-color="#FFA434"/>
<stop offset="1" stop-color="#FFA434"/>
</linearGradient>
<linearGradient id="paint29_linear_1_11" x1="128.651" y1="132.482" x2="73.0887" y2="-5.76502" gradientUnits="userSpaceOnUse">
<stop stop-color="#FFA434"/>
<stop offset="1" stop-color="#FFA434"/>
</linearGradient>
<linearGradient id="paint30_linear_1_11" x1="38.0768" y1="152.509" x2="-17.4852" y2="14.2617" gradientUnits="userSpaceOnUse">
<stop stop-color="#FFA434"/>
<stop offset="1" stop-color="#FFA434"/>
</linearGradient>
<linearGradient id="paint31_linear_1_11" x1="38.0768" y1="152.509" x2="-17.4852" y2="14.2615" gradientUnits="userSpaceOnUse">
<stop stop-color="#FFA434"/>
<stop offset="1" stop-color="#FFA434"/>
</linearGradient>
<linearGradient id="paint32_linear_1_11" x1="60.7197" y1="152.509" x2="5.15776" y2="14.2617" gradientUnits="userSpaceOnUse">
<stop stop-color="#FFA434"/>
<stop offset="1" stop-color="#FFA434"/>
</linearGradient>
<linearGradient id="paint33_linear_1_11" x1="60.7201" y1="152.509" x2="5.15811" y2="14.2614" gradientUnits="userSpaceOnUse">
<stop stop-color="#FFA434"/>
<stop offset="1" stop-color="#FFA434"/>
</linearGradient>
<linearGradient id="paint34_linear_1_11" x1="83.3626" y1="152.509" x2="27.8006" y2="14.2617" gradientUnits="userSpaceOnUse">
<stop stop-color="#FFA434"/>
<stop offset="1" stop-color="#FFA434"/>
</linearGradient>
<linearGradient id="paint35_linear_1_11" x1="83.3633" y1="152.509" x2="27.8013" y2="14.2614" gradientUnits="userSpaceOnUse">
<stop stop-color="#FFA434"/>
<stop offset="1" stop-color="#FFA434"/>
</linearGradient>
<linearGradient id="paint36_linear_1_11" x1="106.005" y1="152.509" x2="50.4434" y2="14.2617" gradientUnits="userSpaceOnUse">
<stop stop-color="#FFA434"/>
<stop offset="1" stop-color="#FFA434"/>
</linearGradient>
<linearGradient id="paint37_linear_1_11" x1="106.006" y1="152.509" x2="50.444" y2="14.2614" gradientUnits="userSpaceOnUse">
<stop stop-color="#FFA434"/>
<stop offset="1" stop-color="#FFA434"/>
</linearGradient>
<linearGradient id="paint38_linear_1_11" x1="128.651" y1="152.509" x2="73.0893" y2="14.2617" gradientUnits="userSpaceOnUse">
<stop stop-color="#FFA434"/>
<stop offset="1" stop-color="#FFA434"/>
</linearGradient>
<linearGradient id="paint39_linear_1_11" x1="128.651" y1="152.509" x2="73.0887" y2="14.2614" gradientUnits="userSpaceOnUse">
<stop stop-color="#FFA434"/>
<stop offset="1" stop-color="#FFA434"/>
</linearGradient>
<linearGradient id="paint40_linear_1_11" x1="38.0768" y1="172.494" x2="-17.4852" y2="34.2468" gradientUnits="userSpaceOnUse">
<stop stop-color="#FFA434"/>
<stop offset="1" stop-color="#FFA434"/>
</linearGradient>
<linearGradient id="paint41_linear_1_11" x1="38.0768" y1="172.494" x2="-17.4852" y2="34.2464" gradientUnits="userSpaceOnUse">
<stop stop-color="#FFA434"/>
<stop offset="1" stop-color="#FFA434"/>
</linearGradient>
<linearGradient id="paint42_linear_1_11" x1="60.7197" y1="172.494" x2="5.15776" y2="34.2468" gradientUnits="userSpaceOnUse">
<stop stop-color="#FFA434"/>
<stop offset="1" stop-color="#FFA434"/>
</linearGradient>
<linearGradient id="paint43_linear_1_11" x1="60.7201" y1="172.494" x2="5.15811" y2="34.2464" gradientUnits="userSpaceOnUse">
<stop stop-color="#FFA434"/>
<stop offset="1" stop-color="#FFA434"/>
</linearGradient>
<linearGradient id="paint44_linear_1_11" x1="83.3626" y1="172.494" x2="27.8006" y2="34.2468" gradientUnits="userSpaceOnUse">
<stop stop-color="#FFA434"/>
<stop offset="1" stop-color="#FFA434"/>
</linearGradient>
<linearGradient id="paint45_linear_1_11" x1="83.3633" y1="172.494" x2="27.8013" y2="34.2464" gradientUnits="userSpaceOnUse">
<stop stop-color="#FFA434"/>
<stop offset="1" stop-color="#FFA434"/>
</linearGradient>
<linearGradient id="paint46_linear_1_11" x1="106.005" y1="172.494" x2="50.4434" y2="34.2468" gradientUnits="userSpaceOnUse">
<stop stop-color="#FFA434"/>
<stop offset="1" stop-color="#FFA434"/>
</linearGradient>
<linearGradient id="paint47_linear_1_11" x1="106.006" y1="172.494" x2="50.444" y2="34.2464" gradientUnits="userSpaceOnUse">
<stop stop-color="#FFA434"/>
<stop offset="1" stop-color="#FFA434"/>
</linearGradient>
<linearGradient id="paint48_linear_1_11" x1="128.651" y1="172.494" x2="73.0893" y2="34.2468" gradientUnits="userSpaceOnUse">
<stop stop-color="#FFA434"/>
<stop offset="1" stop-color="#FFA434"/>
</linearGradient>
<linearGradient id="paint49_linear_1_11" x1="128.651" y1="172.494" x2="73.0887" y2="34.2464" gradientUnits="userSpaceOnUse">
<stop stop-color="#FFA434"/>
<stop offset="1" stop-color="#FFA434"/>
</linearGradient>
</defs>
</svg>
